# xmcd CD database file
#
# Track frame offsets:
#	150
#	23855
#	52593
#	74996
#	92751
#	119831
#	142772
#	166819
#	188858
#	212326
#	237641
#
# Disc length: 3437 seconds
#
# Revision: 0
# Processed by: cddbd v1.4PL0 Copyright (c) Steve Scherf et al.
# Submitted via: CDex 1.50
#
DISCID=9a0d6b0b
DTITLE=diego - instant reality
DYEAR=2003
DGENRE=Merengue
TTITLE0=heavenly blue
TTITLE1=mind detergent
TTITLE2=me fragments
TTITLE3=sacrament
TTITLE4=thought pattern part 2
TTITLE5=launcher
TTITLE6=the rising rrror
TTITLE7=innerfunk
TTITLE8=widewalker
TTITLE9=high in space
TTITLE10=lander
EXTD=YEAR: 2003
EXTT0=
EXTT1=
EXTT2=
EXTT3=
EXTT4=
EXTT5=
EXTT6=
EXTT7=
EXTT8=
EXTT9=
EXTT10=
PLAYORDER=
